<?xml version="1.0" standalone="no"?>
<!DOCTYPE svg PUBLIC "-//W3C//DTD SVG 20010904//EN"
 "http://www.w3.org/TR/2001/REC-SVG-20010904/DTD/svg10.dtd">
<svg version="1.0" xmlns="http://www.w3.org/2000/svg"
 width="64.000000pt" height="64.000000pt" viewBox="0 0 64.000000 64.000000"
 preserveAspectRatio="xMidYMid meet">

<g transform="translate(0.000000,64.000000) scale(0.100000,-0.100000)"
fill="#000000" stroke="none">
<path d="M214 622 c-222 -79 -285 -362 -118 -529 66 -66 123 -88 224 -88 100
0 159 23 225 90 67 66 90 125 90 225 0 73 -4 92 -28 137 -39 75 -78 115 -142
148 -74 37 -176 44 -251 17z m-50 -145 c-5 -18 -4 -20 7 -9 19 18 109 16 109
-3 0 -10 -11 -15 -35 -15 -19 0 -35 -4 -35 -10 0 -5 14 -10 30 -10 43 0 39
-27 -5 -32 -24 -3 -35 0 -35 9 0 7 -2 13 -4 13 -2 0 -11 3 -20 6 -13 5 -16 -2
-16 -35 l0 -41 46 0 c40 0 45 2 34 15 -11 13 -8 15 14 15 16 0 26 -5 26 -15 0
-8 -5 -15 -11 -15 -5 0 -7 -4 -4 -10 4 -6 -15 -10 -49 -10 l-56 0 0 -64 c0
-61 1 -63 25 -63 18 0 25 5 25 18 0 23 16 25 24 3 9 -23 3 -26 -41 -28 l-38
-1 -3 158 c-2 110 1 156 8 152 6 -4 8 -16 4 -28z m247 -52 c24 -68 23 -75 -6
-75 -14 0 -25 5 -25 10 0 6 -9 10 -20 10 -11 0 -20 -4 -20 -10 0 -5 -11 -10
-25 -10 -14 0 -25 4 -25 9 0 7 15 53 35 109 3 8 17 12 37 10 28 -3 33 -9 49
-53z m17 -107 c7 -7 12 -15 12 -19 0 -13 -33 -19 -46 -8 -15 12 -34 4 -34 -15
0 -8 7 -19 15 -26 13 -11 14 -10 9 4 -5 13 1 16 29 16 29 0 36 -4 41 -26 4
-15 5 -29 1 -32 -3 -3 -5 3 -5 12 0 16 -6 17 -45 12 -33 -5 -45 -4 -45 5 0 15
-29 49 -42 49 -15 0 -8 -63 9 -82 9 -10 26 -18 37 -19 20 0 20 -1 -2 -10 -30
-11 -57 3 -76 39 -12 23 -12 30 -1 45 7 10 10 28 7 40 -5 19 -3 20 10 9 12
-10 18 -9 28 3 15 18 81 20 98 3z m-185 -33 c1 -5 -6 -11 -15 -13 -11 -2 -18
3 -18 13 0 17 30 18 33 0z m307 -79 c0 -7 -71 -13 -75 -6 -2 3 14 7 36 8 21 2
39 1 39 -2z"/>
<path d="M350 416 c0 -9 5 -16 10 -16 6 0 10 4 10 9 0 6 -4 13 -10 16 -5 3
-10 -1 -10 -9z"/>
</g>
</svg>
