<?xml version="1.0" standalone="no"?>
<!DOCTYPE svg PUBLIC "-//W3C//DTD SVG 20010904//EN"
 "http://www.w3.org/TR/2001/REC-SVG-20010904/DTD/svg10.dtd">
<svg version="1.0" xmlns="http://www.w3.org/2000/svg"
 width="64.000000pt" height="64.000000pt" viewBox="0 0 64.000000 64.000000"
 preserveAspectRatio="xMidYMid meet">

<g transform="translate(0.000000,64.000000) scale(0.100000,-0.100000)"
fill="#000000" stroke="none">
<path d="M0 320 l0 -320 320 0 320 0 0 320 0 320 -320 0 -320 0 0 -320z m168
53 c-2 -11 -15 -20 -33 -22 -29 -4 -29 -4 -6 -10 34 -9 39 -31 7 -31 -14 0
-26 -4 -26 -10 0 -5 13 -10 29 -10 16 0 31 -5 33 -11 2 -7 12 16 23 50 16 55
21 61 46 61 24 0 29 -6 45 -52 9 -29 19 -59 22 -65 2 -8 -5 -13 -22 -13 -14 0
-26 5 -26 10 0 6 -9 10 -20 10 -11 0 -20 -4 -20 -10 0 -6 -33 -10 -80 -10
l-80 0 0 65 0 65 56 0 c47 0 55 -3 52 -17z m266 -4 l14 -21 21 21 c25 25 73
27 96 4 16 -16 16 -17 -5 -25 -14 -5 -28 -4 -36 3 -11 9 -15 8 -20 -4 -10 -26
0 -52 21 -54 11 -2 14 0 8 3 -25 11 -14 34 17 34 28 0 30 -3 30 -35 l0 -35
-55 0 c-58 0 -75 14 -75 61 0 22 -1 22 -14 4 -12 -16 -12 -22 1 -42 15 -22 14
-23 -10 -23 -14 0 -31 9 -40 23 l-16 22 0 -22 c-1 -18 -7 -23 -26 -23 -24 0
-25 2 -25 65 l0 65 49 0 c39 0 53 -4 65 -21z"/>
<path d="M236 331 c-4 -7 -5 -15 -2 -18 9 -9 19 4 14 18 -4 11 -6 11 -12 0z"/>
<path d="M370 345 c0 -9 5 -15 11 -13 6 2 11 8 11 13 0 5 -5 11 -11 13 -6 2
-11 -4 -11 -13z"/>
</g>
</svg>
